<svg width="200" height="200" viewBox="0 0 200 200" fill="none" xmlns="http://www.w3.org/2000/svg">
<path d="M25.02 81.85H39.6C47.82 81.85 53.82 83.62 57.6 87.16C61.44 90.64 63.36 95.44 63.36 101.56C63.36 108.64 61.29 114.07 57.15 117.85C53.01 121.63 46.86 123.52 38.7 123.52H35.19V148H25.02V81.85ZM38.97 114.61C44.25 114.61 47.94 113.44 50.04 111.1C52.14 108.76 53.19 105.94 53.19 102.64C53.19 99.1 52.17 96.22 50.13 94C48.09 91.78 44.67 90.67 39.87 90.67H35.19V114.61H38.97Z" fill="black"/>
<path d="M82.5546 105.16L82.8246 112.36V148H72.7446V81.76H74.0046L112.885 125.14L112.525 117.58V81.85H122.605V148H121.255L82.5546 105.16Z" fill="black"/>
<path d="M151.131 117.13L128.181 81.85H140.241L156.171 107.95L172.101 81.85H184.071L161.211 117.31V148H151.131V117.13Z" fill="black"/>
<path d="M35.57 75L31.722 67.772C30.9247 67.8067 30.214 67.824 29.59 67.824H28.862V75H26.028V55.89H30.37C32.5713 55.89 34.3827 56.3493 35.804 57.268C37.2253 58.1693 37.936 59.6427 37.936 61.688C37.936 62.9707 37.6327 64.08 37.026 65.016C36.4367 65.9347 35.5527 66.6453 34.374 67.148L38.924 75H35.57ZM30.708 65.458C32.4067 65.458 33.568 65.094 34.192 64.366C34.8333 63.6207 35.154 62.7367 35.154 61.714C35.154 59.4433 33.6373 58.308 30.604 58.308H28.862V65.458H30.708Z" fill="black"/>
<path d="M41.8711 55.89H50.2431V58.438H44.7571V63.716H49.1771V66.316H44.7571V72.426H51.1011V75H41.8711V55.89Z" fill="black"/>
<path d="M58.4279 75.26C57.3879 75.26 56.3565 75.078 55.3339 74.714C54.3112 74.35 53.5745 73.9427 53.1239 73.492L54.5019 71.022C54.8659 71.3513 55.4292 71.698 56.1919 72.062C56.9719 72.4087 57.7172 72.582 58.4279 72.582C59.3465 72.582 60.0919 72.3653 60.6639 71.932C61.2532 71.4987 61.5479 70.9007 61.5479 70.138C61.5479 69.5487 61.3919 69.0373 61.0799 68.604C60.7679 68.1707 60.3865 67.8153 59.9359 67.538C59.4852 67.2433 58.8439 66.888 58.0119 66.472C57.0239 65.9867 56.3479 65.6227 55.9839 65.38C54.3025 64.2533 53.4619 62.6933 53.4619 60.7C53.4619 59.0533 54.0079 57.7967 55.0999 56.93C56.1919 56.046 57.5699 55.604 59.2339 55.604C61.0192 55.604 62.5359 56.1153 63.7839 57.138L62.4059 59.504C62.0765 59.1573 61.6085 58.8627 61.0019 58.62C60.4125 58.36 59.7799 58.23 59.1039 58.23C58.2372 58.23 57.5525 58.4293 57.0499 58.828C56.5645 59.2093 56.3219 59.7813 56.3219 60.544C56.3219 61.0813 56.4779 61.5667 56.7899 62C57.1019 62.416 57.4919 62.78 57.9599 63.092C58.4452 63.404 59.0952 63.7853 59.9099 64.236C60.6899 64.6693 61.2879 65.016 61.7039 65.276C62.1199 65.5187 62.5099 65.8133 62.8739 66.16C63.3765 66.6107 63.7839 67.148 64.0959 67.772C64.4079 68.396 64.5639 69.0807 64.5639 69.826C64.5639 70.9873 64.2952 71.9753 63.7579 72.79C63.2379 73.6047 62.5099 74.22 61.5739 74.636C60.6552 75.052 59.6065 75.26 58.4279 75.26Z" fill="black"/>
<path d="M70.5469 58.438H65.6589V55.89H78.3729V58.438H73.4329V75H70.5469V58.438Z" fill="black"/>
<path d="M86.6216 55.864L95.8256 75H92.4716L90.8336 71.256H82.0716L80.4336 75H77.1836L86.3356 55.864H86.6216ZM85.3216 64.002L83.2416 68.63H89.6896L87.6356 64.028L86.5176 61.402H86.4656L85.3216 64.002Z" fill="black"/>
<path d="M103.497 75.26C101.105 75.26 99.3713 74.5407 98.2966 73.102C97.222 71.6633 96.6846 69.5747 96.6846 66.836V55.89H99.5966V66.888C99.5966 68.916 99.9 70.372 100.507 71.256C101.113 72.1227 102.11 72.556 103.497 72.556C104.883 72.556 105.871 72.1313 106.461 71.282C107.067 70.4153 107.371 68.9507 107.371 66.888V55.89H110.309V66.836C110.309 69.5573 109.737 71.646 108.593 73.102C107.466 74.5407 105.767 75.26 103.497 75.26Z" fill="black"/>
<path d="M123.675 75L119.827 67.772C119.03 67.8067 118.319 67.824 117.695 67.824H116.967V75H114.133V55.89H118.475C120.677 55.89 122.488 56.3493 123.909 57.268C125.331 58.1693 126.041 59.6427 126.041 61.688C126.041 62.9707 125.738 64.08 125.131 65.016C124.542 65.9347 123.658 66.6453 122.479 67.148L127.029 75H123.675ZM118.813 65.458C120.512 65.458 121.673 65.094 122.297 64.366C122.939 63.6207 123.259 62.7367 123.259 61.714C123.259 59.4433 121.743 58.308 118.709 58.308H116.967V65.458H118.813Z" fill="black"/>
<path d="M136.997 55.864L146.201 75H142.847L141.209 71.256H132.447L130.809 75H127.559L136.711 55.864H136.997ZM135.697 64.002L133.617 68.63H140.065L138.011 64.028L136.893 61.402H136.841L135.697 64.002Z" fill="black"/>
<path d="M150.635 62.624L150.713 64.704V75H147.801V55.864H148.165L159.397 68.396L159.293 66.212V55.89H162.205V75H161.815L150.635 62.624Z" fill="black"/>
<path d="M175.178 75.26C173.289 75.26 171.599 74.8267 170.108 73.96C168.618 73.0933 167.448 71.906 166.598 70.398C165.766 68.8727 165.35 67.1653 165.35 65.276C165.35 63.4387 165.775 61.7833 166.624 60.31C167.474 58.8367 168.652 57.684 170.16 56.852C171.668 56.02 173.367 55.604 175.256 55.604C176.279 55.604 177.198 55.6993 178.012 55.89C178.844 56.0633 179.52 56.2713 180.04 56.514C180.56 56.7393 180.916 56.9387 181.106 57.112L179.962 59.556C178.888 58.6893 177.302 58.256 175.204 58.256C173.818 58.256 172.613 58.5593 171.59 59.166C170.568 59.7727 169.788 60.596 169.25 61.636C168.713 62.676 168.444 63.8373 168.444 65.12C168.444 66.576 168.73 67.876 169.302 69.02C169.892 70.164 170.698 71.0567 171.72 71.698C172.76 72.322 173.93 72.634 175.23 72.634C176.045 72.634 176.825 72.5387 177.57 72.348C178.316 72.14 178.948 71.8193 179.468 71.386V67.694H175.542V65.016H182.354V72.504C181.73 73.284 180.786 73.9427 179.52 74.48C178.272 75 176.825 75.26 175.178 75.26Z" fill="black"/>
</svg>
