<svg width="130" height="130" viewBox="0 0 130 130" fill="none" xmlns="http://www.w3.org/2000/svg">
<path d="M60.98 32.24H64.4025C66.3321 32.24 67.7406 32.6949 68.6279 33.6046C69.5293 34.4989 69.98 35.7325 69.98 37.3053C69.98 39.1248 69.4941 40.5203 68.5223 41.4917C67.5504 42.4631 66.1068 42.9488 64.1913 42.9488H63.3673V49.24H60.98V32.24ZM64.2547 40.659C65.4941 40.659 66.3603 40.3584 66.8533 39.757C67.3462 39.1556 67.5927 38.4309 67.5927 37.5828C67.5927 36.6731 67.3533 35.933 66.8744 35.3624C66.3955 34.7919 65.5927 34.5067 64.4659 34.5067H63.3673V40.659H64.2547Z" fill="white"/>
<path d="M49.81 55.4L50.08 62.6V98.24H40V32H41.26L80.14 75.38L79.78 67.82V32.09H89.86V98.24H88.51L49.81 55.4Z" fill="white"/>
<path d="M63.5646 90.3067L57.98 81.24H60.9146L64.791 87.9475L68.6673 81.24H71.58L66.0174 90.3529V98.24H63.5646V90.3067Z" fill="white"/>
</svg>
